<?xml version="1.0" encoding="UTF-8"?>
<svg version="1.1" xmlns="http://www.w3.org/2000/svg" width="512" height="512">
<path d="M0 0 C2.15267145 -0.00960264 4.30434307 -0.04063747 6.45678711 -0.07226562 C16.37901821 -0.14803878 25.58277693 1.04832946 35.25170898 3.24023438 C36.50963257 3.52253906 36.50963257 3.52253906 37.79296875 3.81054688 C54.18555388 7.76624551 69.73172666 15.20144511 83.25170898 25.24023438 C84.45053711 26.10648438 84.45053711 26.10648438 85.67358398 26.99023438 C99.23918758 37.27526717 110.46671621 49.69943675 119.25170898 64.24023438 C119.85837402 65.24111084 119.85837402 65.24111084 120.47729492 66.26220703 C127.21661565 77.61738855 131.70904151 89.54377943 135.25170898 102.24023438 C135.44522949 102.92424316 135.63875 103.60825195 135.83813477 104.31298828 C141.37016243 125.04092003 140.09857809 150.76265809 134.25170898 171.24023438 C134.04803711 171.98837402 133.84436523 172.73651367 133.63452148 173.50732422 C127.51479439 195.51662052 115.69147143 214.47971213 100.00170898 230.92773438 C85.14986883 246.56679145 80.05011329 264.75323283 79.09155273 285.74804688 C78.5092023 298.14165865 74.31597739 308.73374164 66.25170898 318.24023438 C65.59170898 318.57023437 64.93170898 318.90023438 64.25170898 319.24023438 C64.23769043 320.83508667 64.23769043 320.83508667 64.22338867 322.4621582 C64.18312 326.45654191 64.1172648 330.45018485 64.04418945 334.4440918 C64.01619144 336.16339507 63.99487306 337.882822 63.98071289 339.60229492 C63.84659528 354.97664376 61.75072762 366.2917937 51.25170898 378.24023438 C46.23165271 382.96241646 40.63552643 386.6348466 34.25170898 389.24023438 C33.44975098 389.58030518 32.64779297 389.92037598 31.8215332 390.27075195 C26.89390369 391.60898317 22.2001065 391.56516475 17.11499023 391.57617188 C16.03976608 391.58282867 14.96454193 391.58948547 13.85673523 391.59634399 C11.58484603 391.60644947 9.31292728 391.61116167 7.04101562 391.61083984 C3.59316058 391.61519778 0.14660218 391.6514994 -3.30102539 391.68945312 C-5.51651584 391.695325 -7.73201233 391.69929191 -9.94750977 391.70117188 C-11.47464851 391.72272842 -11.47464851 391.72272842 -13.03263855 391.74472046 C-25.16148538 391.66863069 -34.70202161 387.18913362 -43.74829102 379.24023438 C-52.18272845 370.27375451 -57.05338856 360.0629977 -56.98657227 347.73632812 C-57.00198227 346.09243957 -57.01828518 344.44855919 -57.03540039 342.8046875 C-57.05188113 340.23492278 -57.06075818 337.66576079 -57.05371094 335.09594727 C-57.05108981 332.6003914 -57.07919986 330.10664221 -57.11157227 327.61132812 C-57.09626213 326.4642765 -57.09626213 326.4642765 -57.0806427 325.29405212 C-57.15458182 321.25151039 -57.5342949 319.49308423 -60.18212891 316.36450195 C-61.0289624 315.66349365 -61.8757959 314.96248535 -62.74829102 314.24023438 C-64.44360352 311.88085937 -64.44360352 311.88085937 -65.87329102 309.49023438 C-66.35024414 308.71164062 -66.82719727 307.93304688 -67.31860352 307.13085938 C-71.22793755 299.22674138 -72.22771975 291.92722987 -72.68579102 283.17773438 C-74.21950121 260.69646894 -80.54966441 244.04591948 -96.38110352 227.48632812 C-112.59062755 210.51481792 -123.19716455 189.9718821 -128.74829102 167.24023438 C-129.06797852 166.00015625 -129.38766602 164.76007813 -129.71704102 163.48242188 C-137.28163182 128.81138067 -130.45504582 91.18764795 -111.54858398 61.34667969 C-90.84538715 29.72816287 -59.53633798 9.7083828 -22.8972168 1.64160156 C-15.25166532 0.21359808 -7.74874433 0.02079037 0 0 Z " fill="#FECC33" transform="translate(252.748291015625,120.759765625)"/>
<path d="M0 0 C0 109.23 0 218.46 0 331 C-40.97927461 331 -40.97927461 331 -50.3125 326.125 C-51.76076172 325.38636719 -51.76076172 325.38636719 -53.23828125 324.6328125 C-63.76694884 318.40794255 -70.67310458 309.13824741 -74.375 297.56982422 C-75.54568136 292.75631173 -75.67931468 287.86902814 -75.9375 282.9375 C-77.4712102 260.45623456 -83.80137339 243.8056851 -99.6328125 227.24609375 C-115.84233654 210.27458354 -126.44887353 189.73164773 -132 167 C-132.3196875 165.75992188 -132.639375 164.51984375 -132.96875 163.2421875 C-140.53334081 128.5711463 -133.70675481 90.94741357 -114.80029297 61.10644531 C-94.09709614 29.48792849 -62.78804696 9.46814842 -26.14892578 1.40136719 C-16.90417488 -0.32532794 -10.01438804 0 0 0 Z " fill="#FEDA40" transform="translate(256,121)"/>
<path d="M0 0 C0.74475586 0.48355957 1.48951172 0.96711914 2.25683594 1.46533203 C3.23942383 2.09810059 4.22201172 2.73086914 5.234375 3.3828125 C6.69182129 4.32471436 6.69182129 4.32471436 8.17871094 5.28564453 C16.03042113 10.05673392 24.04789301 11.1099486 33.13769531 11.16113281 C34.15148003 11.16858017 34.15148003 11.16858017 35.18574524 11.17617798 C37.39988257 11.19066456 39.61394826 11.197579 41.828125 11.203125 C42.59128777 11.20595238 43.35445053 11.20877975 44.14073944 11.21169281 C48.17993001 11.22663091 52.21908535 11.23589418 56.25830078 11.24023438 C60.40150784 11.24570958 64.54438474 11.26973286 68.68748856 11.29820633 C71.8996674 11.31695256 75.1117686 11.32204465 78.3239975 11.32357025 C79.85002191 11.32657059 81.37604582 11.33450896 82.90201569 11.34775543 C93.36664302 11.43211052 104.27483868 11.45192084 113 4.875 C115.46452652 3.05378739 117.05543651 1.98152116 120 1 C120.09988492 5.92547891 120.17194055 10.85035096 120.21972656 15.77661133 C120.239675 17.44761442 120.26684401 19.11854924 120.30175781 20.78930664 C120.61349062 36.10547303 118.45551425 47.10106963 108 59 C102.97994372 63.72218208 97.38381745 67.39461222 91 70 C89.79706299 70.5101062 89.79706299 70.5101062 88.56982422 71.03051758 C83.6421947 72.36874879 78.94839751 72.32493038 73.86328125 72.3359375 C72.7880571 72.3425943 71.71283295 72.3492511 70.60502625 72.35610962 C68.33313705 72.36621509 66.06121829 72.37092729 63.78930664 72.37060547 C60.34145159 72.37496341 56.89489319 72.41126503 53.44726562 72.44921875 C51.23177517 72.45509062 49.01627869 72.45905753 46.80078125 72.4609375 C45.2736425 72.48249405 45.2736425 72.48249405 43.71565247 72.50448608 C31.58680563 72.42839631 22.0462694 67.94889924 13 60 C4.51346657 50.97813793 -0.35984052 40.72636763 -0.1953125 28.3203125 C-0.19106766 27.10116653 -0.19106766 27.10116653 -0.18673706 25.85739136 C-0.17560619 23.27977325 -0.15051515 20.70251181 -0.125 18.125 C-0.11496101 16.36979671 -0.10583677 14.61458794 -0.09765625 12.859375 C-0.07569015 8.57278074 -0.04120978 4.2864507 0 0 Z " fill="#FEA832" transform="translate(196,440)"/>
<path d="M0 0 C0.66 0 1.32 0 2 0 C2.09988492 4.92547891 2.17194055 9.85035096 2.21972656 14.77661133 C2.239675 16.44761442 2.26684401 18.11854924 2.30175781 19.78930664 C2.61349062 35.10547303 0.45551425 46.10106963 -10 58 C-24.59871615 71.73247471 -37.10313771 71 -58 71 C-58 51.2 -58 31.4 -58 11 C-40.1875 10.6875 -40.1875 10.6875 -34.63745117 10.61206055 C-18.92461907 10.35641324 -18.92461907 10.35641324 -4.875 3.875 C-4.15054688 3.35679687 -3.42609375 2.83859375 -2.6796875 2.3046875 C-1.06450828 1.1060663 -1.06450828 1.1060663 0 0 Z " fill="#FE9923" transform="translate(314,441)"/>
<path d="M0 0 C4.71878688 1.69164058 7.20582817 3.86048618 10 8 C11.57774533 12.733236 12.23076546 17.49101407 9.96434021 22.11125183 C5.84576077 28.18804925 1.11267789 33.32419317 -4.08984375 38.48828125 C-4.95259415 39.35390182 -5.81534454 40.2195224 -6.70423889 41.1113739 C-8.51846197 42.92762701 -10.33643315 44.74014321 -12.15795898 46.54907227 C-14.93631901 49.31132586 -17.69825654 52.08927685 -20.45898438 54.86914062 C-22.23080943 56.63898383 -24.00356458 58.40789651 -25.77734375 60.17578125 C-26.5973436 61.00185379 -27.41734344 61.82792633 -28.26219177 62.67903137 C-37.85762193 72.15826878 -37.85762193 72.15826878 -44.44140625 73.49609375 C-49.326167 73.36115561 -52.83293779 72.81034428 -57 70 C-61.17921204 65.48193293 -62.53010879 61.62946194 -62.38050842 55.5644989 C-61.13066723 47.14098923 -52.65146863 40.21061726 -46.91015625 34.51171875 C-46.04740585 33.64609818 -45.18465546 32.7804776 -44.29576111 31.8886261 C-42.48153803 30.07237299 -40.66356685 28.25985679 -38.84204102 26.45092773 C-36.06368099 23.68867414 -33.30174346 20.91072315 -30.54101562 18.13085938 C-28.76919057 16.36101617 -26.99643542 14.59210349 -25.22265625 12.82421875 C-24.4026564 11.99814621 -23.58265656 11.17207367 -22.73780823 10.32096863 C-15.88861382 3.55471232 -10.06987923 -1.50680675 0 0 Z " fill="#FE9923" transform="translate(430,71)"/>
<path d="M0 0 C6.07679742 4.11857944 11.21294134 8.85166232 16.37702942 14.05418396 C17.24264999 14.91693436 18.10827057 15.77968475 19.00012207 16.6685791 C20.81637518 18.48280218 22.62889137 20.30077336 24.43782043 22.12229919 C27.20007403 24.90065922 29.97802502 27.66259675 32.75788879 30.42332458 C34.527732 32.19514964 36.29664468 33.96790479 38.06452942 35.74168396 C38.89060196 36.56168381 39.7166745 37.38168365 40.56777954 38.22653198 C50.04701694 47.82196214 50.04701694 47.82196214 51.38484192 54.40574646 C51.24990378 59.29050721 50.69909245 62.797278 47.88874817 66.96434021 C43.3706811 71.14355225 39.51821011 72.494449 33.45324707 72.34484863 C25.0297374 71.09500744 18.09936543 62.61580884 12.40046692 56.87449646 C11.53484634 56.01174606 10.66922577 55.14899567 9.77737427 54.26010132 C7.96112116 52.44587824 6.14860496 50.62790706 4.3396759 48.80638123 C1.57742231 46.0280212 -1.20052868 43.26608367 -3.98039246 40.50535583 C-5.75023566 38.73353078 -7.51914834 36.96077563 -9.28703308 35.18699646 C-10.11310562 34.36699661 -10.93917816 33.54699677 -11.7902832 32.70214844 C-21.26952061 23.10671828 -21.26952061 23.10671828 -22.60734558 16.52293396 C-22.47240744 11.63817321 -21.92159611 8.13140242 -19.11125183 3.96434021 C-13.80452176 -0.94438511 -6.87177606 -3.37090159 0 0 Z " fill="#FEA832" transform="translate(93.11125183105469,72.03565979003906)"/>
<path d="M0 0 C0.70310303 -0.00686325 1.40620605 -0.0137265 2.13061523 -0.02079773 C4.44478804 -0.0390341 6.75828082 -0.03523295 9.07250977 -0.02954102 C10.68767008 -0.03410446 12.30282845 -0.03941052 13.91798401 -0.04542542 C17.29973244 -0.05435035 20.68124465 -0.05194065 24.06298828 -0.04199219 C28.3885116 -0.0305049 32.71321825 -0.05071279 37.0386343 -0.07990932 C40.37332811 -0.09828973 43.7078269 -0.09797522 47.04255867 -0.0922718 C48.63690397 -0.0921188 50.23126267 -0.09814555 51.82555962 -0.11056328 C54.05870079 -0.12550668 56.29034202 -0.11477378 58.5234375 -0.09765625 C60.4260862 -0.097407 60.4260862 -0.097407 62.36717224 -0.09715271 C67.40093292 0.63218249 70.5759034 2.7939847 73.67407227 6.78295898 C75.76210283 11.53234376 75.44562559 16.32653425 74.82641602 21.40405273 C72.64667127 26.00573608 70.35174781 28.18819144 65.82641602 30.40405273 C62.49415588 30.79173279 62.49415588 30.79173279 58.65283203 30.80810547 C57.949729 30.81496872 57.24662598 30.82183197 56.5222168 30.8289032 C54.20804399 30.84713956 51.89455121 30.84333842 49.58032227 30.83764648 C47.96516195 30.84220993 46.35000358 30.84751599 44.73484802 30.85353088 C41.35309959 30.86245582 37.97158738 30.86004612 34.58984375 30.85009766 C30.26432043 30.83861037 25.93961378 30.85881826 21.61419773 30.88801479 C18.27950392 30.9063952 14.94500514 30.90608069 11.61027336 30.90037727 C10.01592806 30.90022427 8.42156936 30.90625101 6.82727242 30.91866875 C4.59413125 30.93361215 2.36249001 30.92287925 0.12939453 30.90576172 C-1.13903793 30.90559555 -2.4074704 30.90542938 -3.71434021 30.90525818 C-8.74810088 30.17592298 -11.92307137 28.01412077 -15.02124023 24.02514648 C-17.1092708 19.27576171 -16.79279356 14.48157122 -16.17358398 9.40405273 C-12.66624192 1.99966394 -7.92673608 0.03378573 0 0 Z " fill="#FE9923" transform="translate(437.173583984375,240.595947265625)"/>
<path d="M0 0 C0.70310303 -0.00686325 1.40620605 -0.0137265 2.13061523 -0.02079773 C4.44478804 -0.0390341 6.75828082 -0.03523295 9.07250977 -0.02954102 C10.68767008 -0.03410446 12.30282845 -0.03941052 13.91798401 -0.04542542 C17.29973244 -0.05435035 20.68124465 -0.05194065 24.06298828 -0.04199219 C28.3885116 -0.0305049 32.71321825 -0.05071279 37.0386343 -0.07990932 C40.37332811 -0.09828973 43.7078269 -0.09797522 47.04255867 -0.0922718 C48.63690397 -0.0921188 50.23126267 -0.09814555 51.82555962 -0.11056328 C54.05870079 -0.12550668 56.29034202 -0.11477378 58.5234375 -0.09765625 C60.4260862 -0.097407 60.4260862 -0.097407 62.36717224 -0.09715271 C67.40093292 0.63218249 70.5759034 2.7939847 73.67407227 6.78295898 C75.76210283 11.53234376 75.44562559 16.32653425 74.82641602 21.40405273 C72.64667127 26.00573608 70.35174781 28.18819144 65.82641602 30.40405273 C62.49415588 30.79173279 62.49415588 30.79173279 58.65283203 30.80810547 C57.949729 30.81496872 57.24662598 30.82183197 56.5222168 30.8289032 C54.20804399 30.84713956 51.89455121 30.84333842 49.58032227 30.83764648 C47.96516195 30.84220993 46.35000358 30.84751599 44.73484802 30.85353088 C41.35309959 30.86245582 37.97158738 30.86004612 34.58984375 30.85009766 C30.26432043 30.83861037 25.93961378 30.85881826 21.61419773 30.88801479 C18.27950392 30.9063952 14.94500514 30.90608069 11.61027336 30.90037727 C10.01592806 30.90022427 8.42156936 30.90625101 6.82727242 30.91866875 C4.59413125 30.93361215 2.36249001 30.92287925 0.12939453 30.90576172 C-1.13903793 30.90559555 -2.4074704 30.90542938 -3.71434021 30.90525818 C-8.74810088 30.17592298 -11.92307137 28.01412077 -15.02124023 24.02514648 C-17.1092708 19.27576171 -16.79279356 14.48157122 -16.17358398 9.40405273 C-12.66624192 1.99966394 -7.92673608 0.03378573 0 0 Z " fill="#FEA832" transform="translate(16.173583984375,240.595947265625)"/>
<path d="M0 0 C4.60168335 2.17974474 6.78413871 4.4746682 9 9 C9.38768005 12.33226013 9.38768005 12.33226013 9.40405273 16.17358398 C9.41091599 16.87668701 9.41777924 17.57979004 9.42485046 18.30419922 C9.44308683 20.61837202 9.43928568 22.93186481 9.43359375 25.24609375 C9.43815719 26.86125406 9.44346325 28.47641243 9.44947815 30.09156799 C9.45840309 33.47331643 9.45599338 36.85482863 9.44604492 40.23657227 C9.43455763 44.56209558 9.45476553 48.88680223 9.48396206 53.21221828 C9.50234246 56.5469121 9.50202795 59.88141088 9.49632454 63.21614265 C9.49617154 64.81048795 9.50219828 66.40484665 9.51461601 67.9991436 C9.52955941 70.23228477 9.51882651 72.46392601 9.50170898 74.69702148 C9.50154282 75.96545395 9.50137665 77.23388641 9.50120544 78.54075623 C8.77187024 83.5745169 6.61006804 86.74948739 2.62109375 89.84765625 C-2.12829103 91.93568681 -6.92248151 91.61920957 -12 91 C-16.60168335 88.82025526 -18.78413871 86.5253318 -21 82 C-21.38768005 78.66773987 -21.38768005 78.66773987 -21.40405273 74.82641602 C-21.41091599 74.12331299 -21.41777924 73.42020996 -21.42485046 72.69580078 C-21.44308683 70.38162798 -21.43928568 68.06813519 -21.43359375 65.75390625 C-21.43815719 64.13874594 -21.44346325 62.52358757 -21.44947815 60.90843201 C-21.45840309 57.52668357 -21.45599338 54.14517137 -21.44604492 50.76342773 C-21.43455763 46.43790442 -21.45476553 42.11319777 -21.48396206 37.78778172 C-21.50234246 34.4530879 -21.50202795 31.11858912 -21.49632454 27.78385735 C-21.49617154 26.18951205 -21.50219828 24.59515335 -21.51461601 23.0008564 C-21.52955941 20.76771523 -21.51882651 18.53607399 -21.50170898 16.30297852 C-21.50154282 15.03454605 -21.50137665 13.76611359 -21.50120544 12.45924377 C-20.77187024 7.4254831 -18.61006804 4.25051261 -14.62109375 1.15234375 C-9.87170897 -0.93568681 -5.07751849 -0.61920957 0 0 Z " fill="#FE9923" transform="translate(262,0)"/>
<path d="M0 0 C0 30.03 0 60.06 0 91 C-6.21029673 91 -7.44462468 90.74553082 -12 87 C-15.06308375 82.92427977 -15.38255822 79.86941293 -15.40405273 74.82641602 C-15.41091599 74.12331299 -15.41777924 73.42020996 -15.42485046 72.69580078 C-15.44308683 70.38162798 -15.43928568 68.06813519 -15.43359375 65.75390625 C-15.43815719 64.13874594 -15.44346325 62.52358757 -15.44947815 60.90843201 C-15.45840309 57.52668357 -15.45599338 54.14517137 -15.44604492 50.76342773 C-15.43455763 46.43790442 -15.45476553 42.11319777 -15.48396206 37.78778172 C-15.50234246 34.4530879 -15.50202795 31.11858912 -15.49632454 27.78385735 C-15.49617154 26.18951205 -15.50219828 24.59515335 -15.51461601 23.0008564 C-15.52955941 20.76771523 -15.51882651 18.53607399 -15.50170898 16.30297852 C-15.50154282 15.03454605 -15.50137665 13.76611359 -15.50120544 12.45924377 C-14.77084172 7.41838441 -12.59131348 4.25630012 -8.625 1.125 C-6 0 -6 0 0 0 Z " fill="#FEA832" transform="translate(256,0)"/>
</svg>
